<svg width="120" height="47" viewBox="0 0 130 47" fill="none" xmlns="http://www.w3.org/2000/svg"><path fill-rule="evenodd" clip-rule="evenodd" d="M111.292 16.562C112.669 16.562 113.786 15.4453 113.786 14.0676C113.786 12.69 112.669 11.5732 111.292 11.5732C109.914 11.5732 108.797 12.69 108.797 14.0676C108.797 15.4453 109.914 16.562 111.292 16.562ZM51.4258 13.7559H56.5701L62.0034 26.7275H62.2346L67.6679 13.7559H72.8123V33.0625H68.7662V20.4962H68.6024L63.4966 32.9683H60.7414L55.6356 20.4491H55.4719V33.0625H51.4258V13.7559ZM80.6299 33.3359C79.217 33.3359 78.0449 32.9745 77.1136 32.2518C76.1824 31.5291 75.7168 30.4512 75.7168 29.0183C75.7168 27.9373 75.9769 27.0889 76.4971 26.473C77.0173 25.8571 77.6981 25.4077 78.5394 25.1249C79.3872 24.8358 80.2991 24.6473 81.2753 24.5593C82.5598 24.4336 83.4782 24.3016 84.0305 24.1634C84.5828 24.0251 84.859 23.7234 84.859 23.2584V23.2018C84.859 22.6048 84.6663 22.1428 84.281 21.816C83.9021 21.4892 83.3626 21.3258 82.6626 21.3258C81.924 21.3258 81.3363 21.4829 80.8996 21.7972C80.4629 22.1114 80.1739 22.5105 80.0326 22.9944L76.237 22.6928C76.5196 21.373 77.2196 20.3266 78.3371 19.5535C79.461 18.7805 80.9093 18.394 82.6818 18.394C83.7801 18.394 84.8076 18.5637 85.7646 18.9031C86.7215 19.2425 87.4922 19.7735 88.0766 20.4962C88.6675 21.2127 88.9629 22.146 88.9629 23.2961V33.0625H85.071V31.0546H84.9553C84.5957 31.727 84.0562 32.2769 83.3369 32.7043C82.624 33.1254 81.7217 33.3359 80.6299 33.3359ZM81.8052 30.5643C82.7043 30.5643 83.4429 30.3098 84.0209 29.8008C84.5989 29.2854 84.8879 28.6475 84.8879 27.8871V26.3505C84.7274 26.4573 84.4769 26.5516 84.1365 26.6333C83.8025 26.715 83.4429 26.7872 83.0575 26.8501C82.6786 26.9067 82.3382 26.9569 82.0364 27.0009C81.3171 27.1015 80.7358 27.2994 80.2927 27.5948C79.856 27.8902 79.6376 28.3207 79.6376 28.8863C79.6376 29.4394 79.8399 29.8573 80.2445 30.1401C80.6556 30.4229 81.1758 30.5643 81.8052 30.5643ZM94.1217 37.5498C95.2584 38.3165 96.8223 38.6999 98.8132 38.6999C100.226 38.6999 101.475 38.4925 102.561 38.0777C103.646 37.6629 104.497 37.047 105.114 36.23C105.737 35.413 106.048 34.4043 106.048 33.2039V18.5826H101.973V21.0147H101.819C101.639 20.6188 101.376 20.2197 101.029 19.8175C100.682 19.4153 100.229 19.079 99.6706 18.8088C99.1118 18.5323 98.4182 18.394 97.5897 18.394C96.5108 18.394 95.5153 18.6705 94.6033 19.2236C93.6978 19.7704 92.9689 20.5905 92.4165 21.6841C91.8706 22.7776 91.5977 24.1477 91.5977 25.7943C91.5977 27.3969 91.8642 28.7198 92.3973 29.763C92.9367 30.8063 93.6593 31.5825 94.5648 32.0915C95.4768 32.6006 96.4883 32.8551 97.5994 32.8551C98.7811 32.8551 99.7123 32.6132 100.393 32.1292C101.074 31.639 101.549 31.0954 101.819 30.4984H101.992V33.1474C101.992 34.0964 101.7 34.7782 101.116 35.193C100.538 35.6078 99.8022 35.8152 98.9095 35.8152C98.004 35.8152 97.3072 35.6518 96.8191 35.325C96.3374 35.0045 96.0131 34.6494 95.8461 34.2598L92.0505 34.7594C92.2945 35.8529 92.9849 36.7831 94.1217 37.5498ZM101.193 28.7638C100.653 29.4802 99.8889 29.8385 98.8999 29.8385C97.8916 29.8385 97.1209 29.474 96.5879 28.7449C96.0548 28.0159 95.7883 27.0261 95.7883 25.7754C95.7883 24.5436 96.0516 23.5381 96.5782 22.7587C97.1113 21.9794 97.8852 21.5898 98.8999 21.5898C99.8954 21.5898 100.663 21.97 101.202 22.7305C101.742 23.4909 102.012 24.5059 102.012 25.7754C102.012 27.0512 101.739 28.0473 101.193 28.7638ZM109.314 33.0625V18.5826H113.418V33.0625H109.314ZM119.48 32.4026C120.571 33.0311 121.875 33.3453 123.391 33.3453C124.707 33.3453 125.847 33.1128 126.811 32.6477C127.774 32.1764 128.529 31.5196 129.075 30.6775C129.627 29.8353 129.935 28.8612 129.999 27.7551H126.127C126.005 28.5281 125.703 29.1252 125.221 29.5462C124.739 29.961 124.145 30.1684 123.439 30.1684C122.482 30.1684 121.715 29.7913 121.137 29.0372C120.565 28.2767 120.279 27.2052 120.279 25.8225C120.279 24.4525 120.568 23.3935 121.146 22.6456C121.724 21.8977 122.488 21.5238 123.439 21.5238C124.19 21.5238 124.797 21.7469 125.26 22.1931C125.728 22.6331 126.018 23.2144 126.127 23.9371H129.999C129.942 22.8184 129.63 21.8443 129.065 21.0147C128.506 20.1852 127.739 19.541 126.763 19.0822C125.793 18.6234 124.662 18.394 123.371 18.394C121.875 18.394 120.584 18.7114 119.499 19.3461C118.413 19.9746 117.575 20.8513 116.984 21.9763C116.4 23.095 116.108 24.3959 116.108 25.8791C116.108 27.3434 116.397 28.6381 116.975 29.763C117.559 30.888 118.394 31.7679 119.48 32.4026Z" fill="black"></path><path fill-rule="evenodd" clip-rule="evenodd" d="M19.4576 -8.50513e-07C21.488 2.48675 23.7274 4.79613 26.149 6.90135C24.5353 12.1351 23.6666 17.6956 23.6666 23.459C23.6666 29.2225 24.5354 34.7831 26.1491 40.0169C23.7274 42.1222 21.488 44.4316 19.4576 46.9184C17.4271 44.4316 15.1877 42.1221 12.766 40.0169C14.3796 34.7831 15.2484 29.2226 15.2484 23.4592C15.2484 17.6958 14.3796 12.1353 12.766 6.90151C15.1877 4.79625 17.4271 2.48681 19.4576 -8.50513e-07ZM8.13738 36.3986C5.5739 34.6018 2.8533 33.0139 0.000292012 31.6596C0.791674 29.0656 1.2174 26.3121 1.2174 23.4593C1.2174 20.6063 0.791659 17.8528 0.000254582 15.2588C2.8533 13.9045 5.57394 12.3166 8.13746 10.5198C9.11767 14.6736 9.63633 19.0057 9.63633 23.459C9.63633 27.9124 9.11764 32.2446 8.13738 36.3986ZM29.2793 23.4592C29.2793 27.9124 29.7979 32.2445 30.7781 36.3983C33.3416 34.6016 36.0621 33.0137 38.915 31.6595C38.1236 29.0655 37.6979 26.312 37.6979 23.4591C37.6979 20.6062 38.1236 17.8528 38.915 15.2589C36.0621 13.9046 33.3415 12.3168 30.7781 10.5201C29.7979 14.6739 29.2793 19.006 29.2793 23.4592Z" fill="#6851FF"></path></svg>